HIERARCHY
ROOT Hips
{
 OFFSET 0.000000 0.000000 0.000000
 CHANNELS 6 Xposition Yposition Zposition Yrotation Xrotation Zrotation
 JOINT Chest
 {
  OFFSET 0.000000 9.585900 0.002600
  CHANNELS 3 Yrotation Xrotation Zrotation
  JOINT Chest2
  {
   OFFSET 0.000000 9.601200 -0.005300
   CHANNELS 3 Yrotation Xrotation Zrotation
   JOINT Chest3
   {
    OFFSET 0.000000 9.561800 0.000000
    CHANNELS 3 Yrotation Xrotation Zrotation
    JOINT Chest4
    {
     OFFSET 0.000000 9.552100 0.000000
     CHANNELS 3 Yrotation Xrotation Zrotation
     JOINT Neck
     {
      OFFSET 0.000000 14.453000 0.000000
      CHANNELS 3 Yrotation Xrotation Zrotation
      JOINT Head
      {
       OFFSET 0.000000 8.936500 -0.011300
       CHANNELS 3 Yrotation Xrotation Zrotation
       End Site
       {
        OFFSET 0.000000 17.073600 -0.006000
       }
      }
     }
     JOINT RightCollar
     {
      OFFSET -2.921100 9.558500 0.000000
      CHANNELS 3 Yrotation Xrotation Zrotation
      JOINT RightShoulder
      {
       OFFSET -13.519700 0.000000 0.000000
       CHANNELS 3 Yrotation Xrotation Zrotation
       JOINT RightElbow
       {
        OFFSET 0.000000 -29.696600 0.000000
        CHANNELS 3 Yrotation Xrotation Zrotation
        JOINT RightWrist
        {
         OFFSET 0.000000 -24.004700 0.000000
         CHANNELS 3 Yrotation Xrotation Zrotation
         End Site
         {
          OFFSET 0.000000 -17.728500 0.000000
         }
        }
       }
      }
     }
     JOINT LeftCollar
     {
      OFFSET 2.921100 9.558500 0.000000
      CHANNELS 3 Yrotation Xrotation Zrotation
      JOINT LeftShoulder
      {
       OFFSET 13.519700 0.000000 0.000000
       CHANNELS 3 Yrotation Xrotation Zrotation
       JOINT LeftElbow
       {
        OFFSET 0.000000 -29.696600 0.000000
        CHANNELS 3 Yrotation Xrotation Zrotation
        JOINT LeftWrist
        {
         OFFSET 0.000000 -24.004700 0.000000
         CHANNELS 3 Yrotation Xrotation Zrotation
         End Site
         {
          OFFSET 0.000000 -17.728500 0.000000
         }
        }
       }
      }
     }
    }
   }
  }
 }
 JOINT RightHip
 {
  OFFSET -7.771700 -0.012900 -0.001300
  CHANNELS 3 Yrotation Xrotation Zrotation
  JOINT RightKnee
  {
   OFFSET 0.000000 -40.869800 0.001200
   CHANNELS 3 Yrotation Xrotation Zrotation
   JOINT RightAnkle
   {
    OFFSET 0.000000 -39.717900 0.002100
    CHANNELS 3 Yrotation Xrotation Zrotation
    JOINT RightToe
    {
     OFFSET 0.000000 -4.965400 11.033500
     CHANNELS 3 Yrotation Xrotation Zrotation
     End Site
     {
      OFFSET 0.000000 -1.423100 5.872300
     }
    }
   }
  }
 }
 JOINT LeftHip
 {
  OFFSET 7.771700 -0.012900 -0.001300
  CHANNELS 3 Yrotation Xrotation Zrotation
  JOINT LeftKnee
  {
   OFFSET 0.000000 -40.869800 0.001200
   CHANNELS 3 Yrotation Xrotation Zrotation
   JOINT LeftAnkle
   {
    OFFSET 0.000000 -39.717900 0.002100
    CHANNELS 3 Yrotation Xrotation Zrotation
    JOINT LeftToe
    {
     OFFSET 0.000000 -4.965400 11.033500
     CHANNELS 3 Yrotation Xrotation Zrotation
     End Site
     {
      OFFSET 0.000000 -1.423100 5.872300
     }
    }
   }
  }
 }
}
MOTION
Frames: 5
Frame Time: 0.008333
-2.426662 52.429918 34.681630 170.650792 -39.710277 -2.094366 4.483521 21.086372 1.771454 0.506661 2.855538 0.322683 0.925728 4.660928 0.543174 3.722019 17.950931 2.567348 0.452812 15.188253 -0.061451 0.938746 -7.554638 -0.266850 -4.220593 -3.519810 -3.276059 -5.816088 4.562804 2.426156 -165.613133 -70.235094 -175.676350 0.977659 0.140241 -14.677222 -4.018456 -0.295424 0.836570 7.617937 -1.930820 2.544952 -168.260051 -63.339702 152.665347 -11.862677 -24.111247 27.559125 -2.047648 -41.697700 2.526603 -129.408025 86.271595 -124.843848 0.753717 -9.867197 -1.660128 0.615640 -0.858947 0.263107 -2.695238 -38.006613 6.034028 70.662566 83.201475 60.601994 -3.880608 -12.247992 8.991059 0.426575 1.461922 0.102389
-2.431842 52.428679 34.681404 170.678028 -39.693748 -2.094127 4.480734 21.077503 1.762205 0.533040 2.858135 0.324391 0.921646 4.653862 0.542997 3.750988 17.939637 2.569918 0.424284 15.217597 -0.009423 0.877305 -7.473653 -0.133341 -4.284813 -3.506159 -3.278990 -6.091005 4.689612 2.172652 -166.818159 -69.330034 -174.335432 0.996920 -0.169471 -14.856511 -4.025091 -0.325024 0.879237 7.699357 -1.945920 2.618290 -168.558733 -62.541881 152.975037 -12.040341 -24.869323 28.191207 -2.097545 -41.706561 2.512944 -129.440983 86.270907 -124.895956 0.777174 -9.880051 -1.670692 0.606108 -0.853962 0.261729 -2.697160 -38.023273 6.004026 70.524109 83.212642 60.459576 -3.863092 -12.231666 9.020214 0.422958 1.461321 0.106293
-2.436726 52.426637 34.681717 170.695312 -39.673413 -2.091544 4.507405 21.067692 1.765726 0.534465 2.855407 0.324294 0.916362 4.643586 0.543564 3.737555 17.937736 2.571755 0.434982 15.250087 0.029492 0.834265 -7.387557 -0.004868 -4.309190 -3.492951 -3.286795 -6.367701 4.786188 1.902824 -167.762397 -68.449317 -173.249668 0.996545 -0.509669 -15.052111 -3.999652 -0.360910 0.903727 7.797860 -1.961777 2.701936 -168.934459 -61.753359 153.354069 -12.202733 -25.548210 28.797701 -2.136692 -41.722683 2.505068 -129.412862 86.265978 -124.886736 0.805694 -9.886125 -1.677224 0.595784 -0.852706 0.259140 -2.698894 -38.043111 5.985116 70.399956 83.219884 60.327209 -3.852101 -12.215236 9.042336 0.423914 1.459969 0.114278
-2.439681 52.425248 34.680821 170.718649 -39.664127 -2.102707 4.525241 21.063563 1.776125 0.535263 2.852192 0.324396 0.914969 4.630469 0.546008 3.725199 17.942452 2.573056 0.474225 15.302914 0.108969 0.787392 -7.334548 0.054162 -4.336032 -3.472472 -3.287328 -6.639641 4.852721 1.620210 -168.509870 -67.594124 -172.366985 0.980015 -0.890032 -15.265366 -3.999478 -0.375881 0.917166 7.918014 -2.000716 2.796050 -169.364302 -60.974770 153.779835 -12.344015 -26.133691 29.360609 -2.207103 -41.720481 2.519848 -129.386944 86.268948 -124.890738 0.834486 -9.903116 -1.683411 0.580704 -0.841907 0.252294 -2.703916 -38.051752 5.966674 70.377008 83.211666 60.311381 -3.850760 -12.216979 9.046596 0.422596 1.469453 0.126821
-2.441701 52.423727 34.679356 170.751600 -39.659163 -2.122489 4.565624 21.052573 1.806057 0.509675 2.854645 0.322652 0.910063 4.611251 0.543940 3.756739 17.901819 2.578649 0.430033 15.371155 0.144597 0.786557 -7.235939 0.149394 -4.408810 -3.391635 -3.274992 -6.896219 4.895710 1.330274 -169.118196 -66.757947 -171.643178 0.952720 -1.321738 -15.490500 -4.046032 -0.336041 0.934323 8.029678 -2.046879 2.894350 -169.826325 -60.212365 154.233610 -12.459494 -26.611266 29.861729 -2.242084 -41.722019 2.518762 -129.483531 86.259978 -124.989405 0.860782 -9.912646 -1.684173 0.561042 -0.844284 0.245989 -2.723010 -38.056298 5.952659 70.333421 83.194261 60.265351 -3.814079 -12.196093 9.063579 0.384799 1.457362 0.119776
